<svg width="195" height="102" viewBox="0 0 195 102" fill="none" xmlns="http://www.w3.org/2000/svg">
<path d="M110.597 44.0971C110.187 45.4071 110.577 46.5771 111.107 48.1471C111.747 50.0571 112.327 50.5371 114.147 53.7171C115.527 56.1271 116.217 57.3371 116.677 58.7771C117.407 61.0571 117.027 61.6071 117.687 63.8371C117.887 64.5271 118.587 66.7871 120.217 68.8971C120.837 69.6971 124.197 74.0371 129.327 73.9571C130.027 73.9471 132.777 73.9071 134.897 71.9371C136.447 70.4971 136.857 68.7571 137.427 66.3671C138.277 62.7571 138.037 59.8071 137.937 58.7771C137.717 56.7271 137.247 52.7271 134.397 48.6571C131.157 44.0371 126.877 42.2271 125.287 41.5771C122.977 40.6371 118.817 38.9271 114.657 40.5671C113.787 40.9071 111.307 41.8871 110.607 44.1071L110.597 44.0971Z" fill="black" stroke="black" stroke-miterlimit="10"/>
<path d="M152.337 59.5272C154.817 58.3972 159.447 56.2972 160.937 52.9472C162.527 49.3872 160.537 45.0872 156.887 39.7872C145.757 23.6572 131.087 16.5072 131.087 16.5072C102.517 2.59716 73.5071 13.3772 69.3571 14.9872C62.6071 17.6172 45.6171 24.4972 36.4671 41.2972C32.5371 48.5172 28.2471 60.8872 32.9271 65.5872C35.6471 68.3172 38.9071 65.9472 43.0471 69.1272C48.8271 73.5672 46.3171 81.1672 51.6471 84.8172C53.9371 86.3872 55.9871 86.0172 61.7671 85.8272C72.4671 85.4872 60.7371 86.7872 83.0171 86.3372C110.947 85.7572 108.717 84.1372 119.957 84.8172C133.907 85.6672 143.327 88.5372 145.257 84.8172C146.077 83.2272 144.597 82.2472 143.737 76.7172C143.157 73.0072 141.997 65.5472 145.757 62.0472C147.387 60.5372 148.157 61.4172 152.337 59.5172V59.5272Z" stroke="black" stroke-width="11" stroke-miterlimit="10"/>
<path d="M31.6573 41.0571C28.9773 40.4171 27.6673 37.0271 26.0873 32.9571C25.0873 30.3671 23.3773 24.5471 25.5773 17.7771C28.0073 10.2971 33.6073 6.60714 35.1873 5.63714C41.3973 1.83714 47.4573 2.32714 50.3673 2.59714C52.7773 2.82714 60.5373 3.56714 64.5373 9.17714C65.2973 10.2471 66.4773 11.9471 66.0573 13.7271C65.3173 16.8671 60.1973 17.9171 57.4573 18.7871C42.0773 23.6571 38.4673 42.6871 31.6573 41.0471V41.0571Z" fill="black" stroke="black" stroke-width="4" stroke-miterlimit="10"/>
<path d="M130.837 12.7171C130.917 7.84713 138.087 4.27713 141.467 3.10713C151.947 -0.542871 165.017 5.19713 170.307 15.2471C173.977 22.2171 173.937 31.3471 169.797 37.5071C169.357 38.1571 165.677 43.6271 161.697 43.0771C158.477 42.6271 157.087 38.5071 155.117 34.9771C146.827 20.0971 130.697 20.0571 130.827 12.7171H130.837Z" fill="black" stroke="black" stroke-width="4" stroke-miterlimit="10"/>
<path d="M28.6269 66.3571C24.7469 65.5371 21.8969 64.9371 18.5069 65.3471C17.1169 65.5171 10.8469 66.2771 6.36688 71.4171C1.48688 77.0171 0.776876 85.4771 3.83688 91.1471C4.08688 91.6071 7.07688 97.0071 10.4169 96.7171C12.1269 96.5671 12.9369 94.9971 14.9669 95.1971C16.3469 95.3371 16.6569 96.1271 18.5069 97.2171C18.9869 97.4971 23.6269 100.237 26.0969 98.7371C28.0669 97.5371 27.5869 94.2871 28.6269 94.1871C29.6369 94.0871 29.7969 97.2071 32.1669 98.7371C34.5969 100.307 38.6969 99.7771 40.2669 97.7271C41.5669 96.0271 40.4569 94.1471 41.7869 93.1771C43.1069 92.2071 44.6269 93.7471 46.8469 93.1771C49.1869 92.5771 51.0769 89.9571 51.3969 87.6071C51.5669 86.4071 51.3969 84.8071 45.3269 77.4871C41.3769 72.7271 39.3469 70.3171 36.7269 68.8871C34.2769 67.5471 32.1869 67.1071 28.6269 66.3571Z" fill="black" stroke="black" stroke-width="4" stroke-miterlimit="10"/>
<path d="M163.718 53.7071C165.308 53.6371 165.678 56.0071 167.768 56.2371C169.588 56.4371 169.878 54.7071 172.318 54.2171C175.048 53.6671 178.398 55.0771 179.908 57.2571C180.438 58.0171 180.358 58.3171 180.918 58.7771C182.428 60.0171 184.038 58.7171 186.488 59.2871C188.928 59.8571 190.798 61.9571 191.548 63.8371C191.878 64.6571 191.938 65.5771 192.058 67.3771C192.238 70.1471 192.098 72.2371 192.058 72.9471C191.648 80.1371 193.478 81.8971 192.058 83.5771C190.658 85.2371 188.018 84.5171 182.448 84.0871C182.448 84.0871 177.308 83.6871 167.778 84.0871C156.158 84.5771 152.188 86.9971 149.058 84.0871C147.738 82.8571 147.338 81.2471 146.528 78.0171C145.878 75.3971 144.128 68.4071 147.538 64.8571C147.958 64.4171 147.848 64.6671 153.608 61.8171C158.298 59.5071 158.758 59.1471 159.178 58.7771C162.028 56.2771 162.108 53.7871 163.728 53.7171L163.718 53.7071Z" fill="black" stroke="black" stroke-width="4" stroke-miterlimit="10"/>
<path d="M155.127 80.3172C155.167 78.3272 155.107 77.3672 155.127 76.9772C155.237 74.2372 160.157 71.6871 160.697 71.4071C167.377 68.0171 174.217 70.4872 175.177 70.8472C179.717 72.5672 182.407 75.6772 182.417 76.9772C182.417 77.0672 182.417 77.9172 182.417 79.2072C182.417 80.2872 182.427 80.2772 182.417 80.3172C182.017 81.7972 175.217 80.4372 168.497 80.8771C161.597 81.3271 155.907 83.5872 155.137 81.9872C155.057 81.8272 155.107 81.7872 155.137 80.3172H155.127Z" fill="#F2F2F2" stroke="black" stroke-width="3" stroke-miterlimit="10"/>
<path d="M153.097 69.8971C155.052 69.8971 156.637 68.3122 156.637 66.3571C156.637 64.402 155.052 62.8171 153.097 62.8171C151.142 62.8171 149.557 64.402 149.557 66.3571C149.557 68.3122 151.142 69.8971 153.097 69.8971Z" fill="white" stroke="black" stroke-miterlimit="10"/>
<path d="M163.468 65.3471C165.285 65.3471 166.758 63.8741 166.758 62.0571C166.758 60.2401 165.285 58.7671 163.468 58.7671C161.651 58.7671 160.178 60.2401 160.178 62.0571C160.178 63.8741 161.651 65.3471 163.468 65.3471Z" fill="white" stroke="black" stroke-miterlimit="10"/>
<path d="M174.097 66.8671C175.914 66.8671 177.387 65.3941 177.387 63.5771C177.387 61.7601 175.914 60.2871 174.097 60.2871C172.28 60.2871 170.807 61.7601 170.807 63.5771C170.807 65.3941 172.28 66.8671 174.097 66.8671Z" fill="white" stroke="black" stroke-miterlimit="10"/>
<path d="M183.706 71.9272C185.523 71.9272 186.996 70.4542 186.996 68.6372C186.996 66.8201 185.523 65.3472 183.706 65.3472C181.889 65.3472 180.416 66.8201 180.416 68.6372C180.416 70.4542 181.889 71.9272 183.706 71.9272Z" fill="white" stroke="black" stroke-miterlimit="10"/>
<path d="M118.686 51.1771C119.802 51.1771 120.706 50.2727 120.706 49.1571C120.706 48.0415 119.802 47.1371 118.686 47.1371C117.57 47.1371 116.666 48.0415 116.666 49.1571C116.666 50.2727 117.57 51.1771 118.686 51.1771Z" fill="white" stroke="black" stroke-miterlimit="10"/>
<path d="M77.4563 54.7172C79.8311 54.7172 81.7563 52.792 81.7563 50.4172C81.7563 48.0424 79.8311 46.1172 77.4563 46.1172C75.0814 46.1172 73.1562 48.0424 73.1562 50.4172C73.1562 52.792 75.0814 54.7172 77.4563 54.7172Z" stroke="black" stroke-miterlimit="10"/>
<path d="M88.8362 53.7071C90.5762 52.9871 92.0162 53.4271 93.8962 53.7071C94.1162 53.7371 97.2462 53.7271 103.506 53.7071C106.446 53.6971 107.976 53.6771 109.576 54.7171C110.146 55.0871 111.436 55.9271 111.596 57.2471C111.826 59.1171 109.656 60.8971 108.556 61.7971C108.436 61.8971 108.526 61.8171 106.536 63.3171C104.536 64.8171 104.596 64.7871 104.516 64.8371C103.466 65.4471 102.136 65.5771 99.4562 65.8471C98.5962 65.9371 97.6962 65.9971 96.5962 65.9371C96.5962 65.9371 95.9862 65.9071 95.4062 65.8471C92.5562 65.5171 89.5762 63.9471 89.3362 63.8271C86.9362 62.5471 85.7362 61.9071 85.2862 60.7871C84.3562 58.4771 86.1262 55.9671 86.2962 55.7271C87.2862 54.3671 88.5562 53.8171 88.8262 53.7071H88.8362Z" fill="#0F0303" stroke="black" stroke-miterlimit="10"/>
<path d="M96.4268 66.3572C96.1268 66.7272 96.2568 67.0972 96.4268 68.8872C96.6868 71.6372 96.5268 72.1772 96.4268 72.4272C95.9568 73.6572 94.7668 74.2672 94.4068 74.4472C90.7668 76.2972 85.7768 72.6372 85.2968 73.4372C84.9668 73.9872 87.2068 75.8772 87.3168 75.9672C87.8268 76.3872 88.6268 77.0472 89.8468 77.4872C90.5668 77.7472 92.7268 78.3772 94.9068 77.4872C96.8468 76.6972 97.1068 75.3972 98.4468 75.4672C99.5168 75.5172 99.6368 76.3572 100.977 76.9872C103.577 78.2072 106.597 76.7072 107.047 76.4772C109.357 75.3272 110.817 73.2172 110.587 72.9372C110.407 72.7172 109.317 73.7772 107.047 74.4572C105.827 74.8272 103.547 75.5072 101.477 74.4572C101.097 74.2672 99.9068 73.6572 99.4568 72.4372C99.2968 71.9872 99.3068 71.6772 99.4568 69.9072C99.6968 67.1072 99.7668 66.7272 99.4568 66.3672C98.7968 65.5872 97.0268 65.6072 96.4168 66.3672L96.4268 66.3572Z" fill="#0F0303" stroke="black" stroke-miterlimit="10"/>
<path d="M83.2662 41.5672C82.7762 41.1172 81.8362 40.4172 79.2162 40.0472C77.5762 39.8172 73.8162 39.3372 69.6062 41.0572C62.3362 44.0272 59.5662 51.1772 58.9762 52.6972C57.1962 57.3072 57.5562 61.1272 57.9662 65.3472C58.2062 67.8172 58.6062 69.1772 59.4862 70.4072C61.6662 73.4672 65.4162 73.8872 66.0662 73.9472C70.0662 74.3272 72.8962 72.0372 73.6562 71.4172C74.3462 70.8572 77.1062 68.4872 77.7062 64.8372C78.0362 62.8372 77.4662 61.9472 78.2162 59.7772C78.5562 58.7772 78.6962 58.9272 80.2362 56.2372C81.8562 53.4172 81.8062 53.0972 83.2762 50.6672C84.4962 48.6572 84.5862 48.7972 84.7962 48.1372C85.4662 46.0572 85.0662 43.2272 83.2762 41.5572L83.2662 41.5672Z" fill="black" stroke="black" stroke-miterlimit="10"/>
<path d="M77.7075 50.1671C78.8231 50.1671 79.7275 49.3746 79.7275 48.3971C79.7275 47.4195 78.8231 46.6271 77.7075 46.6271C76.5919 46.6271 75.6875 47.4195 75.6875 48.3971C75.6875 49.3746 76.5919 50.1671 77.7075 50.1671Z" fill="white" stroke="black" stroke-miterlimit="10"/>
<path d="M118.437 53.7072C120.812 53.7072 122.737 51.782 122.737 49.4072C122.737 47.0324 120.812 45.1072 118.437 45.1072C116.062 45.1072 114.137 47.0324 114.137 49.4072C114.137 51.782 116.062 53.7072 118.437 53.7072Z" stroke="black" stroke-miterlimit="10"/>
</svg>
