<svg width="393" height="261" viewBox="0 0 393 261" fill="none" xmlns="http://www.w3.org/2000/svg">
<g clip-path="url(#clip0_94_3)">
<path d="M219.47 44.09C219.06 45.4 219.45 46.57 219.98 48.14C220.62 50.05 221.2 50.53 223.02 53.71C224.4 56.12 225.09 57.33 225.55 58.77C226.28 61.05 225.9 61.6 226.56 63.83C226.76 64.52 227.46 66.78 229.09 68.89C229.71 69.69 233.07 74.03 238.2 73.95C238.9 73.94 241.65 73.9 243.77 71.93C245.32 70.49 245.73 68.75 246.3 66.36C247.15 62.75 246.91 59.8 246.81 58.77C246.59 56.72 246.12 52.72 243.27 48.65C240.03 44.03 235.75 42.22 234.16 41.57C231.85 40.63 227.69 38.92 223.53 40.56C222.66 40.9 220.18 41.88 219.48 44.1L219.47 44.09Z" fill="black" stroke="black" stroke-miterlimit="10"/>
<path d="M261.21 59.52C263.69 58.39 268.32 56.29 269.81 52.94C271.4 49.38 269.41 45.08 265.76 39.78C254.63 23.65 239.96 16.5 239.96 16.5C211.39 2.58999 182.38 13.37 178.23 14.98C171.48 17.61 154.49 24.49 145.34 41.29C141.41 48.51 137.12 60.88 141.8 65.58C144.52 68.31 147.78 65.94 151.92 69.12C157.7 73.56 155.19 81.16 160.52 84.81C162.81 86.38 164.86 86.01 170.64 85.82C181.34 85.48 169.61 86.78 191.89 86.33C219.82 85.75 217.59 84.13 228.83 84.81C242.78 85.66 252.2 88.53 254.13 84.81C254.95 83.22 253.47 82.24 252.61 76.71C252.03 73 250.87 65.54 254.63 62.04C256.26 60.53 257.03 61.41 261.21 59.51V59.52Z" stroke="black" stroke-width="11" stroke-miterlimit="10"/>
<path d="M140.53 41.05C137.85 40.41 136.54 37.02 134.96 32.95C133.96 30.36 132.25 24.54 134.45 17.77C136.88 10.29 142.48 6.6 144.06 5.63C150.27 1.83 156.33 2.32 159.24 2.59C161.65 2.82 169.41 3.56 173.41 9.17C174.17 10.24 175.35 11.94 174.93 13.72C174.19 16.86 169.07 17.91 166.33 18.78C150.95 23.65 147.34 42.68 140.53 41.04V41.05Z" fill="black" stroke="black" stroke-width="4" stroke-miterlimit="10"/>
<path d="M239.71 12.72C239.79 7.85 246.96 4.28 250.34 3.11C260.82 -0.540003 273.89 5.2 279.18 15.25C282.85 22.22 282.81 31.35 278.67 37.51C278.23 38.16 274.55 43.63 270.57 43.08C267.35 42.63 265.96 38.51 263.99 34.98C255.7 20.1 239.57 20.06 239.7 12.72H239.71Z" fill="black" stroke="black" stroke-width="4" stroke-miterlimit="10"/>
<path d="M137.5 66.35C133.62 65.53 130.77 64.93 127.38 65.34C125.99 65.51 119.72 66.27 115.24 71.41C110.36 77.01 109.65 85.47 112.71 91.14C112.96 91.6 115.95 97 119.29 96.71C121 96.56 121.81 94.99 123.84 95.19C125.22 95.33 125.53 96.12 127.38 97.21C127.86 97.49 132.5 100.23 134.97 98.73C136.94 97.53 136.46 94.28 137.5 94.18C138.51 94.08 138.67 97.2 141.04 98.73C143.47 100.3 147.57 99.77 149.14 97.72C150.44 96.02 149.33 94.14 150.66 93.17C151.98 92.2 153.5 93.74 155.72 93.17C158.06 92.57 159.95 89.95 160.27 87.6C160.44 86.4 160.27 84.8 154.2 77.48C150.25 72.72 148.22 70.31 145.6 68.88C143.15 67.54 141.06 67.1 137.5 66.35Z" fill="black" stroke="black" stroke-width="4" stroke-miterlimit="10"/>
<path d="M272.591 53.7C274.181 53.63 274.551 56 276.641 56.23C278.461 56.43 278.751 54.7 281.191 54.21C283.921 53.66 287.271 55.07 288.781 57.25C289.311 58.01 289.231 58.31 289.791 58.77C291.301 60.01 292.911 58.71 295.361 59.28C297.801 59.85 299.671 61.95 300.421 63.83C300.751 64.65 300.811 65.57 300.931 67.37C301.111 70.14 300.971 72.23 300.931 72.94C300.521 80.13 302.351 81.89 300.931 83.57C299.531 85.23 296.891 84.51 291.321 84.08C291.321 84.08 286.181 83.68 276.651 84.08C265.031 84.57 261.061 86.99 257.931 84.08C256.611 82.85 256.211 81.24 255.401 78.01C254.751 75.39 253.001 68.4 256.411 64.85C256.831 64.41 256.721 64.66 262.481 61.81C267.171 59.5 267.631 59.14 268.051 58.77C270.901 56.27 270.981 53.78 272.601 53.71L272.591 53.7Z" fill="black" stroke="black" stroke-width="4" stroke-miterlimit="10"/>
<path d="M264 80.32C264.04 78.33 263.98 77.37 264 76.98C264.11 74.24 269.03 71.69 269.57 71.41C276.25 68.02 283.09 70.49 284.05 70.85C288.59 72.57 291.28 75.68 291.29 76.98C291.29 77.07 291.29 77.92 291.29 79.21C291.29 80.29 291.3 80.28 291.29 80.32C290.89 81.8 284.09 80.44 277.37 80.88C270.47 81.33 264.78 83.59 264.01 81.99C263.93 81.83 263.98 81.79 264.01 80.32H264Z" fill="#F2F2F2" stroke="black" stroke-width="3" stroke-miterlimit="10"/>
<path d="M261.97 69.89C263.925 69.89 265.51 68.3051 265.51 66.35C265.51 64.3949 263.925 62.81 261.97 62.81C260.015 62.81 258.43 64.3949 258.43 66.35C258.43 68.3051 260.015 69.89 261.97 69.89Z" fill="white" stroke="black" stroke-miterlimit="10"/>
<path d="M272.341 65.34C274.158 65.34 275.631 63.867 275.631 62.05C275.631 60.233 274.158 58.76 272.341 58.76C270.524 58.76 269.051 60.233 269.051 62.05C269.051 63.867 270.524 65.34 272.341 65.34Z" fill="white" stroke="black" stroke-miterlimit="10"/>
<path d="M282.97 66.86C284.787 66.86 286.26 65.387 286.26 63.57C286.26 61.753 284.787 60.28 282.97 60.28C281.153 60.28 279.68 61.753 279.68 63.57C279.68 65.387 281.153 66.86 282.97 66.86Z" fill="white" stroke="black" stroke-miterlimit="10"/>
<path d="M292.579 71.92C294.396 71.92 295.869 70.447 295.869 68.63C295.869 66.813 294.396 65.34 292.579 65.34C290.762 65.34 289.289 66.813 289.289 68.63C289.289 70.447 290.762 71.92 292.579 71.92Z" fill="white" stroke="black" stroke-miterlimit="10"/>
<path d="M227.559 51.17C228.675 51.17 229.579 50.2656 229.579 49.15C229.579 48.0344 228.675 47.13 227.559 47.13C226.443 47.13 225.539 48.0344 225.539 49.15C225.539 50.2656 226.443 51.17 227.559 51.17Z" fill="white" stroke="black" stroke-miterlimit="10"/>
<path d="M186.32 54.72C188.694 54.72 190.62 52.7948 190.62 50.42C190.62 48.0452 188.694 46.12 186.32 46.12C183.945 46.12 182.02 48.0452 182.02 50.42C182.02 52.7948 183.945 54.72 186.32 54.72Z" stroke="black" stroke-miterlimit="10"/>
<path d="M197.709 53.7C199.449 52.98 200.889 53.42 202.769 53.7C202.989 53.73 206.119 53.72 212.379 53.7C215.319 53.69 216.849 53.67 218.449 54.71C219.019 55.08 220.309 55.92 220.469 57.24C220.699 59.11 218.529 60.89 217.429 61.79C217.309 61.89 217.399 61.81 215.409 63.31C213.409 64.81 213.469 64.78 213.389 64.83C212.339 65.44 211.009 65.57 208.329 65.84C207.469 65.93 206.569 65.99 205.469 65.93C205.469 65.93 204.859 65.9 204.279 65.84C201.429 65.51 198.449 63.94 198.209 63.82C195.809 62.54 194.609 61.9 194.159 60.78C193.229 58.47 194.999 55.96 195.169 55.72C196.159 54.36 197.429 53.81 197.699 53.7H197.709Z" fill="#0F0303" stroke="black" stroke-miterlimit="10"/>
<path d="M205.3 66.35C205 66.72 205.13 67.09 205.3 68.88C205.56 71.63 205.4 72.17 205.3 72.42C204.83 73.65 203.64 74.26 203.28 74.44C199.64 76.29 194.65 72.63 194.17 73.43C193.84 73.98 196.08 75.87 196.19 75.96C196.7 76.38 197.5 77.04 198.72 77.48C199.44 77.74 201.6 78.37 203.78 77.48C205.72 76.69 205.98 75.39 207.32 75.46C208.39 75.51 208.51 76.35 209.85 76.98C212.45 78.2 215.47 76.7 215.92 76.47C218.23 75.32 219.69 73.21 219.46 72.93C219.28 72.71 218.19 73.77 215.92 74.45C214.7 74.82 212.42 75.5 210.35 74.45C209.97 74.26 208.78 73.65 208.33 72.43C208.17 71.98 208.18 71.67 208.33 69.9C208.57 67.1 208.64 66.72 208.33 66.36C207.67 65.58 205.9 65.6 205.29 66.36L205.3 66.35Z" fill="#0F0303" stroke="black" stroke-miterlimit="10"/>
<path d="M192.139 41.56C191.649 41.11 190.709 40.41 188.089 40.04C186.449 39.81 182.689 39.33 178.479 41.05C171.209 44.02 168.439 51.17 167.849 52.69C166.069 57.3 166.429 61.12 166.839 65.34C167.079 67.81 167.479 69.17 168.359 70.4C170.539 73.46 174.289 73.88 174.939 73.94C178.939 74.32 181.769 72.03 182.529 71.41C183.219 70.85 185.979 68.48 186.579 64.83C186.909 62.83 186.339 61.94 187.089 59.77C187.429 58.77 187.569 58.92 189.109 56.23C190.729 53.41 190.679 53.09 192.149 50.66C193.369 48.65 193.459 48.79 193.669 48.13C194.339 46.05 193.939 43.22 192.149 41.55L192.139 41.56Z" fill="black" stroke="black" stroke-miterlimit="10"/>
<path d="M186.581 50.16C187.696 50.16 188.601 49.3675 188.601 48.39C188.601 47.4125 187.696 46.62 186.581 46.62C185.465 46.62 184.561 47.4125 184.561 48.39C184.561 49.3675 185.465 50.16 186.581 50.16Z" fill="white" stroke="black" stroke-miterlimit="10"/>
<path d="M227.31 53.7C229.685 53.7 231.61 51.7748 231.61 49.4C231.61 47.0252 229.685 45.1 227.31 45.1C224.935 45.1 223.01 47.0252 223.01 49.4C223.01 51.7748 224.935 53.7 227.31 53.7Z" stroke="black" stroke-miterlimit="10"/>
<path d="M71.3899 130.94C71.3899 141 68.1799 149.43 61.7599 156.24C55.2099 163.14 46.9299 166.59 36.8999 166.59C26.8699 166.59 18.6599 163.11 12.0899 156.14C5.63992 149.34 2.41992 140.94 2.41992 130.94C2.41992 120.94 5.63992 112.48 12.0899 105.64C18.6699 98.64 26.9399 95.14 36.8999 95.14C46.8599 95.14 55.0499 98.64 61.6599 105.64C68.1399 112.54 71.3799 120.97 71.3799 130.94H71.3899ZM53.0599 130.85C53.0599 126.01 51.5899 121.9 48.6599 118.52C45.5999 114.97 41.6799 113.2 36.9099 113.2C32.1399 113.2 28.5099 115.04 25.3499 118.71C22.2899 122.26 20.7499 126.34 20.7499 130.95C20.7499 135.88 22.1799 139.99 25.0499 143.28C28.0799 146.73 32.0299 148.46 36.8999 148.46C41.4499 148.46 45.3199 146.64 48.5099 142.99C51.5399 139.51 53.0599 135.46 53.0599 130.85Z" fill="black"/>
<path d="M392.52 163.59C392.52 164.17 392.12 164.57 391.31 164.8C390.34 165.06 387.34 165.19 382.31 165.19C377.7 165.19 374.73 165.06 373.41 164.8C372.31 164.57 371.62 163.85 371.33 162.62C370.23 157.98 369.38 155.49 368.77 155.17C368.25 154.95 363.93 154.83 355.81 154.83C350.33 154.83 347.41 154.97 347.06 155.26C346.51 155.78 345.9 157.5 345.22 160.44C344.61 163.12 343.87 164.57 343 164.79C341.9 165.05 338.23 165.18 331.97 165.18C327.04 165.18 324.57 164.71 324.57 163.78C324.57 162.94 328.21 152.64 335.5 132.87C343.4 111.49 347.69 99.74 348.37 97.61C348.76 96.38 349.21 95.77 349.72 95.77C350.59 95.77 351.94 95.85 353.76 96.01C355.58 96.17 356.94 96.25 357.85 96.25C358.76 96.25 360 96.19 361.69 96.08C363.38 95.97 364.65 95.91 365.49 95.91C366.1 95.91 366.67 96.44 367.18 97.51C368.76 100.9 373.37 112.5 381.01 132.34C388.68 152.3 392.52 162.72 392.52 163.59ZM358.22 119.53C357.54 120.95 356.4 124.03 354.79 128.77C353.05 133.8 352.18 136.75 352.18 137.62C352.18 138.2 353.15 138.52 355.08 138.59C356.08 138.66 357.72 138.69 360.01 138.69C362.14 138.69 363.31 138.43 363.54 137.92C363.6 137.76 363.64 137.53 363.64 137.24C363.64 136.18 362.9 133.24 361.41 128.44C359.96 123.8 358.9 120.83 358.22 119.54V119.53Z" fill="black"/>
<path d="M128.56 112.71C128.56 113.07 128.24 113.24 127.59 113.24C125.17 113.24 121.5 113.03 116.59 112.61C111.67 112.19 107.99 111.98 105.54 111.98C102.44 111.98 100.64 112.09 100.12 112.32C98.9298 112.87 98.3298 114.42 98.3298 116.96C98.3298 120.02 99.0998 121.77 100.65 122.18C101.29 122.34 102.28 122.42 103.6 122.42C105.82 122.42 109.15 122.3 113.59 122.06C118.02 121.82 121.35 121.7 123.58 121.7C124.64 121.7 125.18 124.54 125.18 130.21C125.18 135.14 125 138.01 124.65 138.82C124.42 139.4 123.99 139.69 123.34 139.69C123.76 139.69 122.74 139.58 120.29 139.35C116.84 139.03 111.62 138.87 104.62 138.87C102.36 138.87 101.09 138.89 100.8 138.92C99.1598 139.18 98.3298 139.87 98.3298 141C98.3298 145.58 98.5198 150.85 98.9098 156.82C99.2298 162.21 99.3898 164.61 99.3898 164.03C99.3898 164.87 98.3698 165.35 96.3398 165.48C96.8898 165.45 95.4498 165.43 92.0398 165.43C86.0098 165.43 82.1198 165.22 80.3798 164.8C79.4398 164.57 78.9798 164.07 78.9798 163.3C78.9798 159.72 79.0998 154.34 79.3398 147.17C79.5798 140 79.6998 134.62 79.6998 131.04C79.6998 126.78 79.5098 121.43 79.1198 114.98C78.5398 105.02 78.2298 99.66 78.1998 98.92L78.1498 98.34C78.1198 97.53 78.5998 97.13 79.5998 97.13C81.9898 97.13 85.5898 97.18 90.4098 97.27C95.2298 97.37 98.8498 97.42 101.27 97.42C103.85 97.42 107.73 97.23 112.9 96.84C118.07 96.45 121.95 96.26 124.53 96.26C126.14 96.26 127.04 96.92 127.24 98.24C127.24 99.63 127.3 101.71 127.43 104.48C127.49 105.19 127.7 106.56 128.06 108.59C128.38 110.36 128.54 111.73 128.54 112.7L128.56 112.71Z" fill="black"/>
<path d="M153.91 129.06C153.91 132.87 154.01 138.59 154.2 146.23C154.39 153.87 154.49 159.6 154.49 163.4C154.49 164.05 154.35 164.45 154.06 164.61C153.99 164.64 153.58 164.71 152.8 164.8C150.7 165.06 147.9 165.19 144.38 165.19C139.67 165.19 136.67 165.06 135.38 164.8C134.44 164.61 133.98 164.11 133.98 163.3C133.98 163.82 134.12 160.98 134.42 154.79C135 141.73 135.29 133.15 135.29 129.06C135.29 125.61 135.18 120.43 134.95 113.53C134.72 106.63 134.61 101.45 134.61 98C134.61 97.29 134.98 96.94 135.72 96.94C136.72 96.94 138.23 96.99 140.24 97.09C142.25 97.19 143.76 97.24 144.76 97.24C145.76 97.24 147.23 97.19 149.19 97.09C151.14 96.99 152.62 96.94 153.62 96.94C154.55 96.94 155.02 97.3 155.02 98C155.02 101.45 154.83 106.63 154.46 113.53C154.09 120.43 153.9 125.61 153.9 129.06H153.91Z" fill="black"/>
<path d="M220.27 153.87C220.27 154.39 219.93 155.06 219.25 155.9C213.32 162.96 205.43 166.49 195.6 166.49C185.77 166.49 177.38 163.06 171.12 156.19C165.03 149.55 161.98 141.16 161.98 131.04C161.98 120.92 164.96 112.92 170.93 106.08C177.15 98.92 185.07 95.34 194.68 95.34C205.13 95.34 213.32 98.55 219.25 104.97C219.89 105.68 220.22 106.31 220.22 106.86C220.22 107.47 219.1 109.75 216.86 113.68C214.62 117.61 213.21 119.82 212.63 120.31C212.37 120.57 212.05 120.7 211.66 120.7C211.5 120.7 210.69 120.06 209.24 118.77C207.5 117.22 205.79 116.01 204.11 115.14C201.56 113.85 198.92 113.21 196.18 113.21C191.44 113.21 187.65 114.98 184.81 118.53C182.2 121.82 180.89 125.88 180.89 130.72C180.89 135.56 182.2 139.73 184.81 143.05C187.65 146.66 191.44 148.47 196.18 148.47C198.98 148.47 201.65 147.86 204.16 146.63C205.8 145.82 207.48 144.7 209.19 143.24C210.61 142.02 211.4 141.4 211.56 141.4C211.88 141.4 212.2 141.58 212.53 141.93C213.05 142.51 214.45 144.53 216.74 147.98C219.09 151.56 220.27 153.53 220.27 153.88V153.87Z" fill="black"/>
<path d="M245.129 129.06C245.129 132.87 245.229 138.59 245.419 146.23C245.609 153.87 245.709 159.6 245.709 163.4C245.709 164.05 245.559 164.45 245.279 164.61C245.209 164.64 244.799 164.71 244.019 164.8C241.919 165.06 239.119 165.19 235.599 165.19C230.889 165.19 227.889 165.06 226.599 164.8C225.659 164.61 225.199 164.11 225.199 163.3C225.199 163.82 225.339 160.98 225.639 154.79C226.219 141.73 226.509 133.15 226.509 129.06C226.509 125.61 226.399 120.43 226.169 113.53C225.949 106.63 225.829 101.45 225.829 98C225.829 97.29 226.199 96.94 226.939 96.94C227.939 96.94 229.449 96.99 231.459 97.09C233.469 97.19 234.979 97.24 235.979 97.24C236.979 97.24 238.449 97.19 240.409 97.09C242.359 96.99 243.839 96.94 244.839 96.94C245.769 96.94 246.239 97.3 246.239 98C246.239 101.45 246.049 106.63 245.679 113.53C245.309 120.43 245.119 125.61 245.119 129.06H245.129Z" fill="black"/>
<path d="M319.72 98.44C319.72 102.12 319.57 107.64 319.26 115.01C318.95 122.38 318.8 127.92 318.8 131.63V163.51C318.8 164.38 318.33 164.82 317.4 164.82C316.63 164.82 315.46 164.85 313.89 164.92C312.33 164.98 311.16 165.02 310.38 165.02C309.54 165.02 308.28 164.96 306.61 164.83C304.94 164.7 303.68 164.64 302.84 164.64C302.26 164.64 301.57 164.11 300.76 163.04C298.44 159.91 293.21 152.98 285.09 142.24C282.86 139.24 279.48 134.82 274.93 128.99C274.8 128.8 274.56 128.6 274.2 128.41C273.94 128.64 273.81 128.99 273.81 129.47C273.81 133.21 273.92 138.82 274.12 146.3C274.33 153.78 274.43 159.39 274.43 163.13C274.43 164.26 274 164.82 273.13 164.82H256.39C255.45 164.82 254.99 164.32 254.99 163.32C254.99 159.84 255.16 154.58 255.5 147.55C255.84 140.52 256.01 135.25 256.01 131.73C256.01 128.02 255.86 122.48 255.55 115.09C255.24 107.71 255.09 102.18 255.09 98.5C255.09 97.79 255.72 97.44 256.98 97.44C258.85 97.44 261.16 97.31 263.9 97.05C264.54 96.99 265.82 96.78 267.72 96.42C269.33 96.13 270.6 95.98 271.54 95.98C271.93 95.98 272.52 96.53 273.33 97.62L291.37 122.34C292.98 124.56 295.42 127.82 298.67 132.11C299.47 133.11 300.17 133.61 300.75 133.61C301.17 133.61 301.38 132.35 301.38 129.84C301.38 126.45 301.19 121.36 300.82 114.56C300.45 107.76 300.26 102.64 300.26 99.23C300.26 98.04 300.6 97.44 301.28 97.44C303.22 97.44 306.13 97.36 310.03 97.2C313.93 97.04 316.85 96.96 318.78 96.96C319.39 96.96 319.7 97.46 319.7 98.46L319.72 98.44Z" fill="black"/>
<path d="M75.04 257.66C75.04 258.7 74.55 259.22 73.58 259.22H55.76C54.79 259.22 54.3 258.63 54.3 257.46C54.3 254.07 54.43 248.99 54.68 242.21C54.93 235.43 55.06 230.35 55.06 226.96C55.06 225.99 54.91 225.47 54.61 225.4C54.24 225.6 51.99 230.79 47.87 240.95C45.45 246.92 43.04 252.88 40.62 258.82C40.28 259.59 39.86 260.04 39.36 260.18C39.19 260.21 38.52 260.23 37.35 260.23C35.6 260.23 34.56 259.89 34.23 259.22C32.42 255.53 30.04 250.16 27.08 243.11C23.93 235.66 21.56 230.28 19.98 226.95C19.91 226.78 19.76 226.6 19.53 226.4C19.3 226.7 19.18 227.19 19.18 227.86C19.18 231.15 19.26 236.08 19.43 242.66C19.6 249.24 19.68 254.17 19.68 257.46C19.68 258.64 19.21 259.22 18.27 259.22H1.46C0.79 259.22 0.38 259.11 0.23 258.89C0.08 258.67 0 258.29 0 257.76C0 254.1 0.18 248.61 0.53 241.28C0.88 233.95 1.06 228.46 1.06 224.8C1.06 220.91 0.89 213.61 0.56 202.91C0.53 200.13 0.38 195.98 0.11 190.48L0.06 189.62C0.03 188.95 0.73 188.61 2.17 188.61C4.02 188.61 6.78 188.55 10.47 188.43C14.16 188.31 16.93 188.25 18.78 188.25C19.15 188.25 19.67 188.95 20.34 190.36L35.04 222.62C36.08 224.8 36.95 225.89 37.66 225.89C38.03 225.89 38.82 224.63 40.03 222.11C43.42 215.06 48.44 204.44 55.08 190.25C55.65 188.94 56.27 188.29 56.94 188.29C57.91 188.29 59.38 188.34 61.34 188.44C63.3 188.54 64.79 188.59 65.79 188.59C66.63 188.59 67.91 188.51 69.64 188.34C71.37 188.17 72.65 188.09 73.49 188.09C74.5 188.09 75 188.49 75 189.3C75 193.26 74.86 199.17 74.57 207.04C74.28 214.91 74.14 220.82 74.14 224.78C74.14 228.44 74.29 233.92 74.59 241.24C74.89 248.56 75.04 254.02 75.04 257.65V257.66Z" fill="black"/>
<path d="M150.79 257.96C150.79 258.56 150.37 258.98 149.53 259.22C148.52 259.49 145.4 259.62 140.17 259.62C135.37 259.62 132.28 259.49 130.91 259.22C129.77 258.99 129.05 258.23 128.75 256.95C127.61 252.12 126.72 249.54 126.08 249.2C125.54 248.97 121.05 248.85 112.59 248.85C106.89 248.85 103.85 249 103.48 249.3C102.91 249.84 102.27 251.63 101.57 254.69C100.93 257.48 100.16 258.99 99.2503 259.22C98.1103 259.49 94.2803 259.62 87.7703 259.62C82.6403 259.62 80.0703 259.13 80.0703 258.16C80.0703 257.29 83.8603 246.57 91.4403 226C99.6603 203.75 104.12 191.52 104.83 189.31C105.23 188.03 105.7 187.4 106.24 187.4C107.15 187.4 108.55 187.48 110.44 187.65C112.33 187.82 113.75 187.9 114.69 187.9C115.63 187.9 116.93 187.84 118.69 187.72C120.45 187.6 121.77 187.54 122.64 187.54C123.28 187.54 123.87 188.09 124.4 189.2C126.04 192.72 130.84 204.8 138.79 225.44C146.77 246.21 150.77 257.05 150.77 257.95L150.79 257.96ZM105.8 187.1C105.16 187.13 104.84 186.78 104.84 186.04C104.84 185.77 104.87 185.35 104.94 184.78C105.01 184.21 105.04 183.77 105.04 183.47C105.04 183.07 104.98 182.45 104.86 181.61C104.74 180.77 104.68 180.15 104.68 179.75C104.68 179.28 105.03 178.91 105.74 178.64C107.38 178 110.57 176.34 115.3 173.66C117.35 172.18 120.45 169.99 124.61 167.07C124.81 166.9 125.15 166.74 125.62 166.57C125.85 166.64 126.14 166.8 126.48 167.07C127.25 167.88 128.48 169.02 130.15 170.49C131.09 171.03 132.47 171.88 134.28 173.06C134.82 173.43 135.08 173.76 135.08 174.07C135.08 174.34 134.85 174.69 134.38 175.13C131.43 177.92 127 180.56 121.09 183.06C115.18 185.56 110.24 186.91 106.24 187.11H105.79L105.8 187.1ZM115.11 212.11C114.41 213.59 113.21 216.79 111.54 221.72C109.73 226.95 108.82 230.02 108.82 230.93C108.82 231.53 109.83 231.87 111.84 231.94C112.88 232.01 114.59 232.04 116.97 232.04C119.18 232.04 120.41 231.77 120.64 231.24C120.71 231.07 120.74 230.84 120.74 230.54C120.74 229.43 119.97 226.38 118.43 221.38C116.92 216.55 115.81 213.46 115.11 212.12V212.11Z" fill="black"/>
<path d="M222.16 257.61C222.23 258.52 221.76 258.97 220.75 258.97C220.11 258.97 218.27 258.6 215.24 257.86C212.21 257.12 210.33 256.62 209.63 256.35C202.62 259.1 195.89 260.48 189.45 260.48C179.08 260.48 170.58 257.03 163.93 250.11C157.35 243.3 154.07 234.69 154.07 224.29C154.07 213.89 157.26 204.83 163.63 197.82C170.21 190.57 178.75 186.95 189.25 186.95C194.35 186.95 199.15 187.92 203.64 189.87C208.5 192.02 212.33 195.04 215.11 198.93C215.68 199.74 215.97 200.31 215.97 200.64C215.97 201.71 214.47 204.12 211.47 207.86C208.47 211.6 206.53 213.47 205.66 213.47C205.46 213.47 204.69 212.78 203.35 211.41C201.71 209.77 200.03 208.49 198.32 207.59C195.77 206.21 192.95 205.53 189.86 205.53C184.83 205.53 180.83 207.41 177.88 211.17C175.13 214.63 173.75 218.94 173.75 224.11C173.75 229.58 175.18 233.91 178.03 237.1C180.98 240.39 185.16 242.03 190.56 242.03C193.98 242.03 197.81 241.17 202.03 239.46C201.93 238.35 201.63 235.53 201.12 231C200.68 227.51 200.47 224.69 200.47 222.54C200.47 221.9 200.69 221.52 201.12 221.38C201.29 221.31 201.56 221.28 201.93 221.28C202.9 221.28 204.37 221.37 206.33 221.56C208.29 221.74 209.78 221.84 210.78 221.84C211.85 221.84 213.46 221.76 215.61 221.61C217.76 221.46 219.37 221.38 220.44 221.38C221.28 221.38 221.7 221.93 221.7 223.04C221.7 224.65 221.61 227.08 221.42 230.34C221.24 233.6 221.14 236.03 221.14 237.64C221.14 241.97 221.46 248.44 222.1 257.07L222.15 257.62L222.16 257.61Z" fill="black"/>
<path d="M249.64 222.03C249.64 225.99 249.74 231.94 249.94 239.9C250.14 247.85 250.24 253.81 250.24 257.77C250.24 258.44 250.09 258.86 249.79 259.03C249.72 259.06 249.29 259.13 248.48 259.23C246.3 259.5 243.38 259.63 239.72 259.63C234.82 259.63 231.7 259.5 230.36 259.23C229.39 259.03 228.9 258.51 228.9 257.67C228.9 258.21 229.05 255.25 229.35 248.81C229.95 235.22 230.26 226.3 230.26 222.03C230.26 218.44 230.14 213.05 229.91 205.87C229.68 198.69 229.56 193.3 229.56 189.71C229.56 188.97 229.95 188.6 230.72 188.6C231.76 188.6 233.33 188.65 235.43 188.75C237.53 188.85 239.1 188.9 240.14 188.9C241.18 188.9 242.71 188.85 244.75 188.75C246.78 188.65 248.31 188.6 249.36 188.6C250.33 188.6 250.82 188.97 250.82 189.71C250.82 193.3 250.63 198.69 250.24 205.87C249.85 213.05 249.66 218.44 249.66 222.03H249.64Z" fill="black"/>
<path d="M318.689 247.84C318.689 248.38 318.339 249.08 317.629 249.95C311.459 257.3 303.249 260.97 293.019 260.97C282.789 260.97 274.059 257.4 267.549 250.25C261.209 243.34 258.039 234.61 258.039 224.08C258.039 213.55 261.139 205.22 267.349 198.11C273.819 190.66 282.059 186.94 292.059 186.94C302.929 186.94 311.449 190.28 317.629 196.96C318.299 197.7 318.639 198.35 318.639 198.92C318.639 199.56 317.469 201.92 315.139 206.02C312.809 210.11 311.339 212.41 310.739 212.92C310.469 213.19 310.139 213.32 309.729 213.32C309.559 213.32 308.719 212.65 307.209 211.31C305.399 209.7 303.619 208.44 301.879 207.53C299.229 206.19 296.479 205.52 293.619 205.52C288.689 205.52 284.739 207.37 281.789 211.06C279.069 214.48 277.709 218.71 277.709 223.74C277.709 228.77 279.069 233.12 281.789 236.57C284.739 240.33 288.689 242.21 293.619 242.21C296.539 242.21 299.309 241.57 301.929 240.3C303.639 239.46 305.389 238.29 307.159 236.78C308.639 235.51 309.459 234.87 309.629 234.87C309.969 234.87 310.299 235.05 310.639 235.42C311.179 236.02 312.639 238.12 315.019 241.71C317.469 245.44 318.689 247.48 318.689 247.85V247.84Z" fill="black"/>
<path d="M390.521 257.96C390.521 258.56 390.101 258.98 389.261 259.22C388.251 259.49 385.131 259.62 379.901 259.62C375.101 259.62 372.011 259.49 370.641 259.22C369.501 258.99 368.781 258.23 368.481 256.95C367.341 252.12 366.451 249.54 365.811 249.2C365.271 248.97 360.781 248.85 352.321 248.85C346.621 248.85 343.581 249 343.211 249.3C342.641 249.84 342.001 251.63 341.301 254.69C340.661 257.48 339.891 258.99 338.991 259.22C337.851 259.49 334.021 259.62 327.511 259.62C322.381 259.62 319.811 259.13 319.811 258.16C319.811 257.29 323.601 246.57 331.181 226C339.401 203.75 343.861 191.52 344.571 189.31C344.971 188.03 345.441 187.4 345.981 187.4C346.891 187.4 348.291 187.48 350.181 187.65C352.081 187.82 353.491 187.9 354.431 187.9C355.371 187.9 356.671 187.84 358.431 187.72C360.191 187.6 361.511 187.54 362.381 187.54C363.021 187.54 363.601 188.09 364.141 189.2C365.781 192.72 370.581 204.8 378.531 225.44C386.521 246.21 390.511 257.05 390.511 257.95L390.521 257.96ZM354.831 212.11C354.121 213.59 352.931 216.79 351.261 221.72C349.451 226.95 348.541 230.02 348.541 230.93C348.541 231.53 349.551 231.87 351.561 231.94C352.601 232.01 354.311 232.04 356.691 232.04C358.911 232.04 360.131 231.77 360.361 231.24C360.431 231.07 360.461 230.84 360.461 230.54C360.461 229.43 359.691 226.38 358.141 221.38C356.631 216.55 355.521 213.46 354.821 212.12L354.831 212.11Z" fill="black"/>
</g>
<defs>
<clipPath id="clip0_94_3">
<rect width="392.52" height="260.98" fill="white"/>
</clipPath>
</defs>
</svg>
